<?xml version="1.0" encoding="UTF-8" standalone="no"?>
<svg
   xmlns:dc="http://purl.org/dc/elements/1.1/"
   xmlns:cc="http://creativecommons.org/ns#"
   xmlns:rdf="http://www.w3.org/1999/02/22-rdf-syntax-ns#"
   xmlns:svg="http://www.w3.org/2000/svg"
   xmlns="http://www.w3.org/2000/svg"
   height="500"
   width="500"
   id="svg4"
   version="1.1"
   viewBox="0 0 500 500"
   role="img"
   class="svg-inline--fa fa-fedora fa-w-14"
   data-icon="fedora"
   data-prefix="fab"
   focusable="false"
   aria-hidden="true">
  <metadata
     id="metadata10">
    <rdf:RDF>
      <cc:Work
         rdf:about="">
        <dc:format>image/svg+xml</dc:format>
        <dc:type
           rdf:resource="http://purl.org/dc/dcmitype/StillImage" />
        <dc:title></dc:title>
      </cc:Work>
    </rdf:RDF>
  </metadata>
  <defs
     id="defs8" />
  <rect
     y="1.5197731e-06"
     x="4.2997897e-07"
     height="500"
     width="500"
     id="rect817"
     style="fill:#233d6e;fill-opacity:1;stroke:#ffffff;stroke-width:0;stroke-linecap:round;stroke-miterlimit:4;stroke-dasharray:none" />
  <path
     style="fill:#ffffff;fill-opacity:1;stroke-width:0.66904324"
     id="path2"
     d="M 250.53529,100.13431 C 167.77464,99.933605 100.5358,166.83792 100.26818,249.59857 l -0.26762,113.93806 a 35.860718,35.860718 0 0 0 35.86072,36.06144 l 113.87116,0.26761 c 82.76065,0.20072 150.0664,-66.70361 150.26711,-149.46426 0.20071,-82.76065 -66.70361,-150.06639 -149.46426,-150.26711 z m 113.60354,105.1736 -41.34687,-41.88211 c 1.5388,-3.1445 2.54236,-6.1552 2.54236,-9.56732 v -1.07046 l 36.93119,37.53332 a 67.573367,67.573367 0 0 1 1.87332,14.98657 z m -42.68496,-63.4922 a 70.958726,70.958726 0 0 1 39.13903,42.68495 L 324.26386,147.9709 a 17.716265,17.716265 0 0 0 -2.80999,-6.15519 z m -142.4393,102.29671 a 33.224687,33.224687 0 0 0 -5.15163,7.62709 l -5.68687,-5.68687 a 57.390529,57.390529 0 0 1 10.8385,-1.94022 z m -14.11681,2.80998 7.89471,7.96161 -0.60214,5.35235 a 23.242562,23.242562 0 0 0 1.6057,8.36304 l -18.06417,-18.19798 a 53.924885,53.924885 0 0 1 9.1659,-3.47902 z m -12.17659,4.95092 25.55745,25.69126 a 35.573029,35.573029 0 0 0 -9.43351,3.1445 l -23.61723,-24.01865 a 71.587626,71.587626 0 0 1 7.49329,-4.81711 z m -10.16946,6.55662 23.61723,23.75104 a 44.993158,44.993158 0 0 0 -7.02496,5.68686 l -23.34961,-23.14889 a 43.039551,43.039551 0 0 1 6.75734,-6.28901 z m -8.89827,8.22923 23.34961,23.41652 a 38.028418,38.028418 0 0 0 -5.15164,7.62709 l -23.95175,-24.01865 c 1.87333,-2.54237 3.81355,-4.81711 5.75378,-7.02496 z m -7.35948,9.56732 24.35317,24.48698 a 32.308098,32.308098 0 0 0 -2.40855,10.16946 l -26.42721,-26.62792 a 66.777206,66.777206 0 0 1 4.48259,-8.02852 z m -5.88758,10.90541 27.63149,27.966 a 42.464174,42.464174 0 0 0 4.48259,17.52894 l -35.25858,-35.79382 c 0.93666,-3.27831 1.94022,-6.42281 3.1445,-9.70112 z m -5.28544,28.76886 41.41378,41.61449 a 20.900911,20.900911 0 0 0 -2.40856,9.56731 v 0.73595 l -37.065,-37.26571 a 59.056447,59.056447 0 0 1 -1.94022,-14.65204 z m 3.54593,20.53962 36.32905,36.52976 a 19.02759,19.02759 0 0 0 2.80998,6.1552 71.132677,71.132677 0 0 1 -39.13903,-42.68496 z m -3.54593,-24.7546 a 53.985099,53.985099 0 0 1 1.40499,-11.37373 l 48.30492,48.50563 a 25.149335,25.149335 0 0 0 -6.62353,5.82068 z m 169.46865,-34.65644 -28.50124,-0.0669 -0.0669,37.46642 c -0.13381,46.3647 -43.08639,77.47521 -84.09874,68.84455 -3.81355,0 -13.31396,-5.82068 -13.31396,-16.19085 a 16.652486,16.652486 0 0 1 16.39156,-16.45846 c 4.21497,0 4.21497,1.07047 10.50398,1.07047 a 37.406207,37.406207 0 0 0 37.53332,-37.39952 l 0.0669,-31.44503 c 0,-3.01069 -3.0107,-6.02139 -5.95449,-6.02139 l -22.47985,-0.0669 c -21.81081,-0.0669 -21.74391,-33.05074 0.0669,-32.98383 l 28.50125,0.0669 0.0669,-37.46642 a 70.369968,70.369968 0 0 1 70.65097,-70.24954 57.771884,57.771884 0 0 1 13.51467,1.5388 c 7.49328,1.20428 13.31396,7.96161 13.31396,16.05704 0,10.37017 -9.96874,18.5994 -20.27201,15.99013 -18.33178,-3.94736 -44.08995,9.63422 -44.15685,36.73047 l -0.0669,31.44503 a 5.9812465,5.9812465 0 0 0 5.95449,6.02139 l 22.47985,0.0669 c 21.74391,0.13381 21.677,33.11764 -0.13381,33.05073 z m 15.72252,-0.20071 a 23.804558,23.804558 0 0 0 5.08473,-7.62709 l 5.68686,5.68687 a 68.24241,68.24241 0 0 1 -10.77159,1.94022 z m 14.04991,-2.80998 -7.89471,-7.96161 0.60213,-5.41925 a 23.242562,23.242562 0 0 0 -1.6057,-8.36305 l 18.06417,18.19798 a 50.104648,50.104648 0 0 1 -9.16589,3.54593 z m 12.04277,-4.95092 -25.42364,-25.69126 c 3.27831,-0.73595 6.42282,-1.6057 9.16589,-3.1445 l 24.21937,24.01865 c -2.54237,1.67261 -5.28544,3.34521 -7.96162,4.81711 z m 10.37017,-6.55662 -23.61722,-23.75104 a 40.85178,40.85178 0 0 0 7.02495,-5.68687 l 23.34961,23.41652 a 83.336026,83.336026 0 0 1 -6.75734,6.02139 z m 8.83137,-8.22924 -23.3496,-23.41651 a 42.270152,42.270152 0 0 0 5.15163,-7.62709 l 23.95175,24.01865 a 87.162953,87.162953 0 0 1 -5.75378,7.02495 z m 7.35948,-9.56731 -24.35317,-24.48699 a 32.308098,32.308098 0 0 0 2.40855,-10.16945 l 26.42721,26.62792 a 58.688473,58.688473 0 0 1 -4.48259,8.02852 z m 9.03208,-20.67344 a 94.087551,94.087551 0 0 1 -3.1445,9.56732 l -27.63148,-27.7653 a 38.931626,38.931626 0 0 0 -4.75021,-17.52893 z m 0.66905,-3.74664 -48.10421,-48.23802 a 21.409384,21.409384 0 0 0 6.62353,-6.1552 l 43.01948,43.2871 a 60.836102,60.836102 0 0 1 -1.5388,11.10612 z" />
</svg>
