<?xml version="1.0" encoding="UTF-8" standalone="no"?>
<svg
   xmlns:dc="http://purl.org/dc/elements/1.1/"
   xmlns:cc="http://creativecommons.org/ns#"
   xmlns:rdf="http://www.w3.org/1999/02/22-rdf-syntax-ns#"
   xmlns:svg="http://www.w3.org/2000/svg"
   xmlns="http://www.w3.org/2000/svg"
   height="500"
   width="500"
   id="svg8"
   xml:space="preserve"
   enable-background="new 0 0 1000 1000"
   viewBox="0 0 500 500"
   y="0px"
   x="0px"
   version="1.1"><defs
   id="defs12" />
<metadata
   id="metadata2"> Svg Vector Icons : http://www.onlinewebfonts.com/icon <rdf:RDF><cc:Work
     rdf:about=""><dc:format>image/svg+xml</dc:format><dc:type
       rdf:resource="http://purl.org/dc/dcmitype/StillImage" /><dc:title></dc:title></cc:Work></rdf:RDF></metadata>
<rect
   y="1.4365079e-06"
   x="3.6874994e-07"
   height="500"
   width="500"
   id="rect822"
   style="fill:#93d450;fill-opacity:1;stroke:#ffffff;stroke-width:0;stroke-linecap:round;stroke-miterlimit:4;stroke-dasharray:none" /><g
   style="fill:#ffffff;fill-opacity:1"
   transform="matrix(0.30615369,0,0,0.30615369,96.938463,96.938463)"
   id="g6"><path
     style="fill:#ffffff;fill-opacity:1"
     id="path4"
     d="m 10,79.1 v 171.2 h 74.6 c 52.1,0 61.3,35.3 61.3,84 l 0.4,302.7 c 0,156.8 140.5,283.8 313.6,283.8 h 427.3 c 54.8,0 102.7,-33.9 102.7,-86.1 V 365.5 C 989.9,208.7 849.5,81.7 676.2,81.7 H 496.4 v -0.5 z m 233.7,104.8 h 85.8 v 431.3 c 0,57.7 40.2,102.5 87.3,102.5 l 292.8,1.2 c 61.1,0 108.7,-41.2 108.7,-90.1 l -0.5,-229 c 0,-14.9 -4.9,-26.4 -15.8,-37.1 C 791.1,352 779.5,347 764.6,347 c -15.3,0 -26.5,4.9 -37.5,15.7 -10.8,10.7 -15.8,22.3 -15.8,37.1 V 595.7 H 620.5 V 399.9 c 0,-14.9 -5,-26.4 -15.9,-37.1 -10.9,-10.8 -22.2,-15.7 -37.4,-15.7 -14.9,0 -26.4,4.9 -37.3,15.7 C 519.1,373.4 514,385 514,399.9 V 595.8 H 423.2 V 399.9 c 0,-38.7 14.7,-73.2 42.5,-100.7 27.8,-27.5 62.5,-41.7 101.5,-41.7 38.3,0 71.5,14.1 98.5,39.6 27.1,-25.5 60.5,-39.6 98.8,-39.6 39,0 73.6,14.2 101.5,41.7 27.8,27.5 42.5,61.9 42.5,100.7 l 0.4,244.7 c -4.3,41 -22,77.3 -52.2,107.7 h -0.1 C 821.1,787.7 777.2,806 727,806 H 401 v -1.6 C 361.1,800.2 325.6,783.2 296.1,754.7 261.6,721 243.8,679.3 243.8,631.8 Z" /></g>
</svg>