<?xml version="1.0" encoding="UTF-8" standalone="no"?>
<svg
   xmlns:dc="http://purl.org/dc/elements/1.1/"
   xmlns:cc="http://creativecommons.org/ns#"
   xmlns:rdf="http://www.w3.org/1999/02/22-rdf-syntax-ns#"
   xmlns:svg="http://www.w3.org/2000/svg"
   xmlns="http://www.w3.org/2000/svg"
   aria-hidden="true"
   focusable="false"
   data-prefix="fab"
   data-icon="suse"
   class="svg-inline--fa fa-suse fa-w-20"
   role="img"
   viewBox="0 0 500 500"
   version="1.1"
   id="svg4"
   width="500"
   height="500">
  <metadata
     id="metadata10">
    <rdf:RDF>
      <cc:Work
         rdf:about="">
        <dc:format>image/svg+xml</dc:format>
        <dc:type
           rdf:resource="http://purl.org/dc/dcmitype/StillImage" />
        <dc:title></dc:title>
      </cc:Work>
    </rdf:RDF>
  </metadata>
  <defs
     id="defs8" />
  <rect
     style="fill:#73ba25;fill-opacity:1;stroke:none;stroke-width:30;stroke-linecap:round"
     id="rect4520"
     width="500"
     height="500"
     x="0"
     y="0" />
  <path
     d="m 321.7872,177.27246 c 0,0 -0.14246,8.68968 -0.14246,9.63937 -4.32109,-1.42454 -35.32853,-11.44378 -64.43658,-12.48844 -24.6445,-0.85473 -58.31108,-2.04184 -105.89064,27.20866 -9.21201,5.88809 -35.09111,21.8904 -47.29465,52.0906 -2.60215,6.33444 -5.983051,20.57982 -2.60215,33.90399 a 52.707893,52.707893 0 0 0 7.83496,16.952 c 8.26231,11.87115 22.12781,19.75359 37.08546,21.08316 21.08316,1.8519 37.08546,-7.59753 42.73613,-25.30929 3.89374,-12.25102 0,-30.20019 -14.95765,-39.36472 -12.15605,-7.45508 -25.30928,-5.74563 -32.85933,-0.75975 -6.60036,4.36858 -10.35164,11.15888 -10.25667,18.61396 0.14245,13.20071 11.53875,20.22843 19.7061,20.22843 a 23.267448,23.267448 0 0 0 7.50257,-1.28208 c 3.0865,-0.85473 6.31545,-3.0865 6.31545,-7.07521 0,-5.74563 -5.50821,-7.02772 -7.97741,-6.60036 -1.37706,0.23743 -2.13681,0.9497 -5.60318,1.13963 -0.9497,-0.095 -5.69816,-1.47202 -5.69816,-6.64784 v -0.0285 c 0.095,-5.8406 6.26797,-8.54722 12.10857,-8.02489 15.33753,1.32956 22.65015,19.32622 13.53311,31.19737 -8.68968,11.25385 -36.37319,11.01643 -47.34213,-9.68686 -12.346,-23.36241 6.03054,-52.80286 41.31159,-46.72483 15.76488,2.70662 39.69711,16.85703 48.62422,49.52643 h 21.79542 c -2.70662,-8.35729 -4.22612,-32.43198 20.27592,-32.43198 26.92376,0 30.34265,18.94635 37.8927,32.43198 h 23.07751 c -6.07802,-8.68968 -10.30415,-18.37654 -8.97458,-26.4964 2.65913,-16.0498 18.85138,-8.73717 39.1273,-8.26232 31.57725,0.18994 48.48176,-12.82084 48.95661,-13.29569 1.75693,-1.47202 3.0865,-7.50256 3.32392,-8.40477 0.6173,-2.42171 -1.51951,-1.13963 -1.51951,-1.13963 -4.13116,2.4692 -14.4828,7.21766 -24.16965,7.4076 -12.0136,0.23742 -36.18326,-12.06109 -38.74743,-13.39066 -0.14245,-0.18994 0.0475,0.56982 -5.2233,-12.10857 41.97637,27.68352 56.17427,19.23126 68.94762,10.30416 0.37988,-0.28491 2.04184,-1.37706 1.70945,-2.70662 -6.55288,-22.84009 -10.63655,-29.77284 -16.38219,-33.04928 -17.56929,-10.25667 -59.35573,-16.47715 -61.35009,-16.76206 0.0475,-0.0475 -0.42736,-0.14245 -0.42736,0.33239 z m 28.68069,34.56878 a 17.825714,17.825714 0 0 1 18.4715,-17.2369 c 15.85986,0.56981 23.17248,20.08598 11.58624,30.95995 -11.49127,10.779 -30.58007,2.18429 -30.05774,-13.72305 z m 18.32905,-12.0136 a 12.474201,12.474201 0 1 0 12.06108,12.91581 12.436214,12.436214 0 0 0 -12.06108,-12.91581 z m 2.04184,13.67556 c -7.31263,0 -7.31263,-7.40759 0,-7.40759 7.31262,0 7.31262,7.42659 0,7.42659 z"
     id="path2"
     style="fill:#ffffff;fill-opacity:1;stroke-width:0.47484589" />
</svg>
