<?xml version="1.0" encoding="UTF-8" standalone="no"?>
<svg
   aria-hidden="true"
   focusable="false"
   data-prefix="fab"
   data-icon="ubuntu"
   class="svg-inline--fa fa-ubuntu fa-w-16"
   role="img"
   viewBox="0 0 500 500"
   version="1.1"
   id="svg853"
   sodipodi:docname="popos.svg"
   width="500"
   height="500"
   inkscape:version="1.2.1 (9c6d41e410, 2022-07-14, custom)"
   xml:space="preserve"
   xmlns:inkscape="http://www.inkscape.org/namespaces/inkscape"
   xmlns:sodipodi="http://sodipodi.sourceforge.net/DTD/sodipodi-0.dtd"
   xmlns="http://www.w3.org/2000/svg"
   xmlns:svg="http://www.w3.org/2000/svg"
   xmlns:rdf="http://www.w3.org/1999/02/22-rdf-syntax-ns#"
   xmlns:cc="http://creativecommons.org/ns#"
   xmlns:dc="http://purl.org/dc/elements/1.1/"><sodipodi:namedview
     pagecolor="#ffffff"
     bordercolor="#666666"
     borderopacity="1"
     objecttolerance="10"
     gridtolerance="10"
     guidetolerance="10"
     inkscape:pageopacity="0"
     inkscape:pageshadow="2"
     inkscape:window-width="1502"
     inkscape:window-height="1386"
     id="namedview837"
     showgrid="false"
     inkscape:zoom="1.1504296"
     inkscape:cx="174.71734"
     inkscape:cy="259.46829"
     inkscape:window-x="2565"
     inkscape:window-y="47"
     inkscape:window-maximized="1"
     inkscape:current-layer="svg853"
     inkscape:showpageshadow="2"
     inkscape:pagecheckerboard="0"
     inkscape:deskcolor="#d1d1d1" /><metadata
     id="metadata859"><rdf:RDF><cc:Work
         rdf:about=""><dc:format>image/svg+xml</dc:format><dc:type
           rdf:resource="http://purl.org/dc/dcmitype/StillImage" /><dc:title /></cc:Work></rdf:RDF></metadata><defs
     id="defs857" /><rect
     style="display:inline;enable-background:new;stroke-width:22.8473;fill:#48b9c7;fill-opacity:1;stroke-linejoin:round"
     id="rect975"
     width="946"
     height="946"
     x="9.883913"
     y="9.4620848"
     transform="matrix(0.52854122,0,0,0.52854122,-5.224004,-5.0011017)" /><g
     style="display:inline;enable-background:new"
     id="g1063"
     transform="matrix(8.3333328,0,0,8.3333328,-1890.6233,-1854.4724)"><g
       id="g1061"
       style="stroke-width:3.784"
       transform="matrix(0.06342495,0,0,0.06342495,226.24793,221.93657)"><g
         id="g1057"><path
           id="path1049"
           style="fill:#ffffff;stroke-width:14.3187"
           d="m 536,357 c -24,51 -64,92 -120,112 l 48,125 c 9,23 17,47 10,69 -7,22 -39,29 -62,5 -44,-47 -192,-343 -203,-365 -11,-22 -23,-40 -23,-62 1,-33 52,-67 77,-84 25,-17 74,-40 117,-41 43,-1 61,9 86,25 38,25 65,64 75,109 10,45 7,80 -5,105 M 423,301 c -9,-31 -28,-61 -53,-81 -5,-4 -11,-9 -18,-11 -46,-15 -26,62 -19,82 7,20 26,62 47,83 5,5 10,9 16,10 6,1 18,-5 23,-13 5,-8 6,-14 6,-22 a 128,128 0 0 0 -2,-48 z" /><g
           id="g1055"><path
             id="path1051"
             style="fill:#ffffff;stroke-width:3.784"
             d="m 625,664 c -2,9 -7,17 -15,22 -8,5 -27,5 -38,-4 -11,-9 -13,-24 -10,-36 3,-12 13,-25 27,-29 29,-9 42,23 36,47 z" /><path
             id="path1053"
             style="fill:#ffffff;stroke-width:3.784"
             d="m 607,573 c -18,-7 -12,-103 5,-220 5,-32 13,-48 22,-56 9,-8 36,-12 52,-9 a 90,90 0 0 1 49,24 c 12,11 13,23 9,38 -4,15 -18,47 -29,70 l -28,53 c -54,96 -65,106 -80,100 z" /></g></g><rect
         ry="31.28697"
         y="757.80005"
         x="252.267"
         height="63.066662"
         width="441.46664"
         id="rect1059"
         style="vector-effect:none;fill:#ffffff;fill-opacity:1;stroke:none;stroke-width:119.181;stroke-linecap:round;stroke-miterlimit:4;stroke-dasharray:none;stroke-opacity:1" /></g></g></svg>
