<?xml version="1.0" encoding="UTF-8" standalone="no"?>
<svg
   xmlns:dc="http://purl.org/dc/elements/1.1/"
   xmlns:cc="http://creativecommons.org/ns#"
   xmlns:rdf="http://www.w3.org/1999/02/22-rdf-syntax-ns#"
   xmlns:svg="http://www.w3.org/2000/svg"
   xmlns="http://www.w3.org/2000/svg"
   height="500"
   width="500"
   id="svg4"
   version="1.1"
   viewBox="0 0 500 500"
   role="img"
   class="svg-inline--fa fa-redhat fa-w-16"
   data-icon="redhat"
   data-prefix="fab"
   focusable="false"
   aria-hidden="true">
  <metadata
     id="metadata10">
    <rdf:RDF>
      <cc:Work
         rdf:about="">
        <dc:format>image/svg+xml</dc:format>
        <dc:type
           rdf:resource="http://purl.org/dc/dcmitype/StillImage" />
        <dc:title></dc:title>
      </cc:Work>
    </rdf:RDF>
  </metadata>
  <defs
     id="defs8" />
  <rect
     y="1.6672724e-05"
     x="5.1674607e-07"
     height="500"
     width="500"
     id="rect817"
     style="fill:#e80101;fill-opacity:1;stroke:#ffffff;stroke-width:0;stroke-linecap:round;stroke-miterlimit:4;stroke-dasharray:none" />
  <path
     style="fill:#ffffff;fill-opacity:1;stroke-width:0.5859375"
     id="path2"
     d="m 300.10937,267.34082 c 19.7168,0 48.2461,-4.0664 48.2461,-27.53906 0.12891,-3.94923 0.50391,-1.0664 -12.23438,-56.39063 -2.70703,-11.22071 -5.08593,-16.3125 -24.79101,-26.1621 -15.28711,-7.81641 -48.58594,-20.72461 -58.43555,-20.72461 -9.17578,0 -11.83594,11.81836 -22.77539,11.81836 -10.54687,0 -18.3457,-8.82422 -28.19531,-8.82422 -9.45703,0 -15.6211,6.44531 -20.37891,19.69922 -16.11328,45.43945 -15.39844,43.51758 -15.30469,45.86133 0,14.53125 57.21094,62.17381 133.86914,62.17381 m 51.25782,-17.9121 c 2.72461,12.89062 2.72461,14.26758 2.72461,15.96679 0,22.06642 -24.80274,34.3125 -57.42188,34.3125 -73.67578,0.0469 -138.22851,-43.15429 -138.22851,-71.67773 a 29.033203,29.033203 0 0 1 2.3789,-11.55469 C 134.3125,217.71192 100,222.44042 100,252.7334 100,302.34473 217.55664,363.47559 310.63867,363.47559 382,363.47559 400,331.20215 400,305.71387 c 0,-20.04492 -17.33789,-42.80273 -48.5918,-56.39062" />
</svg>
