<?xml version="1.0" encoding="UTF-8" standalone="no"?>
<svg
   xmlns:dc="http://purl.org/dc/elements/1.1/"
   xmlns:cc="http://creativecommons.org/ns#"
   xmlns:rdf="http://www.w3.org/1999/02/22-rdf-syntax-ns#"
   xmlns:svg="http://www.w3.org/2000/svg"
   xmlns="http://www.w3.org/2000/svg"
   id="svg10"
   width="500"
   height="500"
   version="1.1">
  <metadata
     id="metadata16">
    <rdf:RDF>
      <cc:Work
         rdf:about="">
        <dc:format>image/svg+xml</dc:format>
        <dc:type
           rdf:resource="http://purl.org/dc/dcmitype/StillImage" />
        <dc:title></dc:title>
      </cc:Work>
    </rdf:RDF>
  </metadata>
  <defs
     id="defs14" />
  <rect
     y="0"
     x="3.7363675e-06"
     height="500"
     width="500"
     id="rect823"
     style="fill:#009de8;fill-opacity:1;stroke:#ffffff;stroke-width:0;stroke-linecap:round;stroke-miterlimit:4;stroke-dasharray:none" />
  <g
     style="fill:#ffffff;fill-opacity:1"
     transform="matrix(1.7620938,0,0,1.7620938,99.721592,-494.53268)"
     id="g829">
    <path
       d="m 170.41,368.125 c -32.996,13.642 -48.861,5.973 -63.16,-3.65 l -16.278,56.462 c 14.285,9.678 31.531,17.635 63.188,3.463 z"
       style="fill:#ffffff;fill-opacity:1"
       id="path2" />
    <path
       style="fill:#ffffff;fill-opacity:1"
       d="M 63.142,481.63 C 48.811,471.985 33.232,464.052 0.158,477.728 L 16.353,421.16 c 33.081,-13.678 48.973,-5.938 63.29,3.766 l -16.501,56.703 z"
       id="path4" />
    <path
       d="m 82.393,414.715 c -8.628,-5.81 -17.907,-11.233 -31.085,-11.333 -8.695,-0.067 -19.045,2.403 -32.184,7.836 l 16.283,-56.422 c 33.059,-13.669 48.938,-5.933 63.245,3.764 z"
       style="fill:#ffffff;fill-opacity:1"
       id="path6" />
    <path
       d="m 88.227,430.369 c 14.313,9.637 30.212,17.313 63.243,3.66 l -16.281,56.234 c -33.037,13.664 -48.903,5.926 -63.201,-3.77 z"
       style="fill:#ffffff;fill-opacity:1"
       id="path8" />
  </g>
</svg>
