<?xml version="1.0" encoding="UTF-8" standalone="no"?>
<svg
   xmlns:dc="http://purl.org/dc/elements/1.1/"
   xmlns:cc="http://creativecommons.org/ns#"
   xmlns:rdf="http://www.w3.org/1999/02/22-rdf-syntax-ns#"
   xmlns:svg="http://www.w3.org/2000/svg"
   xmlns="http://www.w3.org/2000/svg"
   aria-hidden="true"
   focusable="false"
   data-prefix="fas"
   data-icon="times"
   class="svg-inline--fa fa-times fa-w-11"
   role="img"
   viewBox="0 0 500 500"
   version="1.1"
   id="svg14"
   width="500"
   height="500">
  <metadata
     id="metadata20">
    <rdf:RDF>
      <cc:Work
         rdf:about="">
        <dc:format>image/svg+xml</dc:format>
        <dc:type
           rdf:resource="http://purl.org/dc/dcmitype/StillImage" />
        <dc:title></dc:title>
      </cc:Work>
    </rdf:RDF>
  </metadata>
  <defs
     id="defs18" />
  <path
     fill="currentColor"
     d="m 306.86364,250 85.28693,-85.28693 c 10.46591,-10.46591 10.46591,-27.43466 0,-37.90909 l -18.95455,-18.95455 c -10.46591,-10.465908 -27.43466,-10.465908 -37.90909,0 L 250,193.13636 164.71307,107.84943 c -10.46591,-10.465908 -27.43466,-10.465908 -37.90909,0 l -18.95455,18.95455 c -10.465909,10.46591 -10.465909,27.43466 0,37.90909 L 193.13636,250 107.84943,335.28693 c -10.465909,10.46591 -10.465909,27.43466 0,37.90909 l 18.95455,18.95455 c 10.4659,10.46591 27.44318,10.46591 37.90909,0 L 250,306.86364 l 85.28693,85.28693 c 10.46591,10.46591 27.44318,10.46591 37.90909,0 l 18.95455,-18.95455 c 10.46591,-10.46591 10.46591,-27.43466 0,-37.90909 z"
     id="path12"
     style="stroke-width:30;stroke:#ffffff;stroke-opacity:1;stroke-miterlimit:4;stroke-dasharray:none" />
</svg>
