<?xml version="1.0" encoding="UTF-8" standalone="no"?>
<svg
   xmlns:dc="http://purl.org/dc/elements/1.1/"
   xmlns:cc="http://creativecommons.org/ns#"
   xmlns:rdf="http://www.w3.org/1999/02/22-rdf-syntax-ns#"
   xmlns:svg="http://www.w3.org/2000/svg"
   xmlns="http://www.w3.org/2000/svg"
   aria-hidden="true"
   focusable="false"
   data-prefix="fas"
   data-icon="compact-disc"
   class="svg-inline--fa fa-compact-disc fa-w-16"
   role="img"
   viewBox="0 0 500 500"
   version="1.1"
   id="svg4"
   width="500"
   height="500">
  <metadata
     id="metadata10">
    <rdf:RDF>
      <cc:Work
         rdf:about="">
        <dc:format>image/svg+xml</dc:format>
        <dc:type
           rdf:resource="http://purl.org/dc/dcmitype/StillImage" />
        <dc:title></dc:title>
      </cc:Work>
    </rdf:RDF>
  </metadata>
  <defs
     id="defs8" />
  <rect
     y="1.3137931e-06"
     x="6.5555554e-07"
     height="500"
     width="500"
     id="rect816"
     style="fill:#df5717;fill-opacity:1;stroke:#ffffff;stroke-width:0;stroke-linecap:round;stroke-miterlimit:4;stroke-dasharray:none" />
  <path
     d="m 250,150 c -55.24193,0 -100,44.75807 -100,100 0,55.24193 44.75807,100 100,100 55.24193,0 100,-44.75807 100,-100 0,-55.24193 -44.75807,-100 -100,-100 z m -64.51613,100 h -12.90322 c 0,-42.70161 34.71774,-77.41935 77.41935,-77.41935 v 12.90322 c -35.56451,0 -64.51613,28.95162 -64.51613,64.51613 z M 250,288.70968 c -21.37097,0 -38.70968,-17.33871 -38.70968,-38.70968 0,-21.37097 17.33871,-38.70968 38.70968,-38.70968 21.37097,0 38.70968,17.33871 38.70968,38.70968 0,21.37097 -17.33871,38.70968 -38.70968,38.70968 z m 0,-51.61291 c -7.1371,0 -12.90323,5.76613 -12.90323,12.90323 0,7.1371 5.76613,12.90323 12.90323,12.90323 7.1371,0 12.90323,-5.76613 12.90323,-12.90323 0,-7.1371 -5.76613,-12.90323 -12.90323,-12.90323 z"
     id="path2"
     style="fill:#ffffff;stroke-width:0.40322581;fill-opacity:1" />
</svg>
