<?xml version="1.0" encoding="UTF-8" standalone="no"?>
<svg
   xmlns:dc="http://purl.org/dc/elements/1.1/"
   xmlns:cc="http://creativecommons.org/ns#"
   xmlns:rdf="http://www.w3.org/1999/02/22-rdf-syntax-ns#"
   xmlns:svg="http://www.w3.org/2000/svg"
   xmlns="http://www.w3.org/2000/svg"
   aria-hidden="true"
   focusable="false"
   data-prefix="fas"
   data-icon="info"
   class="svg-inline--fa fa-info fa-w-6"
   role="img"
   viewBox="0 0 500 500"
   version="1.1"
   id="svg4"
   width="500"
   height="500">
  <metadata
     id="metadata10">
    <rdf:RDF>
      <cc:Work
         rdf:about="">
        <dc:format>image/svg+xml</dc:format>
        <dc:type
           rdf:resource="http://purl.org/dc/dcmitype/StillImage" />
        <dc:title></dc:title>
      </cc:Work>
    </rdf:RDF>
  </metadata>
  <defs
     id="defs8" />
  <rect
     style="fill:#3b85e1;fill-opacity:1;stroke:#ffffff;stroke-width:0;stroke-linecap:round;stroke-miterlimit:4;stroke-dasharray:none"
     id="rect817"
     width="500"
     height="500"
     x="5.6670996e-07"
     y="1.0667101e-06" />
  <path
     d="m 220.3125,315.71445 h 7.8125 v -56.4289 h -7.8125 c -4.31485,0 -7.8125,-3.49766 -7.8125,-7.8125 V 232.8125 c 0,-4.31485 3.49765,-7.8125 7.8125,-7.8125 h 43.75 c 4.31485,0 7.8125,3.49765 7.8125,7.8125 v 82.90195 h 7.8125 c 4.31485,0 7.8125,3.49766 7.8125,7.8125 v 18.66055 c 0,4.31485 -3.49765,7.8125 -7.8125,7.8125 h -59.375 c -4.31485,0 -7.8125,-3.49765 -7.8125,-7.8125 v -18.66055 c 0,-4.31484 3.49765,-7.8125 7.8125,-7.8125 z M 250,150 c -15.53321,0 -28.125,12.5918 -28.125,28.125 0,15.5332 12.59179,28.125 28.125,28.125 15.5332,0 28.125,-12.5918 28.125,-28.125 C 278.125,162.5918 265.53281,150 250,150 Z"
     id="path2"
     style="fill:#feffff;fill-opacity:1;stroke-width:0.390625" />
</svg>
