<?xml version="1.0" encoding="UTF-8" standalone="no"?>
<svg
   xmlns:dc="http://purl.org/dc/elements/1.1/"
   xmlns:cc="http://creativecommons.org/ns#"
   xmlns:rdf="http://www.w3.org/1999/02/22-rdf-syntax-ns#"
   xmlns:svg="http://www.w3.org/2000/svg"
   xmlns="http://www.w3.org/2000/svg"
   xmlns:sodipodi="http://sodipodi.sourceforge.net/DTD/sodipodi-0.dtd"
   xmlns:inkscape="http://www.inkscape.org/namespaces/inkscape"
   id="svg8"
   version="1.1"
   viewBox="0 0 132.29166 132.29167"
   height="500"
   width="500"
   sodipodi:docname="overlayStart (copy).svg"
   inkscape:version="0.92.5 (2060ec1f9f, 2020-04-08)">
  <sodipodi:namedview
     pagecolor="#ffffff"
     bordercolor="#666666"
     borderopacity="1"
     objecttolerance="10"
     gridtolerance="10"
     guidetolerance="10"
     inkscape:pageopacity="0"
     inkscape:pageshadow="2"
     inkscape:window-width="1848"
     inkscape:window-height="1016"
     id="namedview8"
     showgrid="false"
     inkscape:zoom="1.3350176"
     inkscape:cx="114.79579"
     inkscape:cy="247.00378"
     inkscape:window-x="72"
     inkscape:window-y="27"
     inkscape:window-maximized="1"
     inkscape:current-layer="layer1" />
  <defs
     id="defs2" />
  <metadata
     id="metadata5">
    <rdf:RDF>
      <cc:Work
         rdf:about="">
        <dc:format>image/svg+xml</dc:format>
        <dc:type
           rdf:resource="http://purl.org/dc/dcmitype/StillImage" />
        <dc:title />
      </cc:Work>
    </rdf:RDF>
  </metadata>
  <g
     style="display:inline"
     id="layer1">
    <path
       style="fill:#ff2200;fill-opacity:1;fill-rule:evenodd;stroke:#ffffff;stroke-width:0;stroke-linecap:round;stroke-miterlimit:4;stroke-dasharray:none"
       d="m 132.29166,79.375 v 52.91666 H 79.375 Z"
       id="rect818"
       inkscape:connector-curvature="0"
       sodipodi:nodetypes="cccc" />
    <path
       inkscape:connector-curvature="0"
       d="m 116.67007,117.58015 c 0.0835,0.36166 -0.31323,0.63653 -0.62187,0.44359 l -1.05255,-0.65771 -1.31431,2.10328 c -0.34324,0.54919 0.0535,1.2656 0.70078,1.2656 h 1.34328 c 0.17123,0 0.31006,0.13883 0.31006,0.31006 v 1.03353 c 0,0.17123 -0.13883,0.31006 -0.31006,0.31006 h -1.34061 c -1.9465,0 -3.13423,-2.14581 -2.10344,-3.79511 l 1.31315,-2.10292 -1.05226,-0.65753 c -0.31216,-0.195 -0.23167,-0.67078 0.12606,-0.75339 l 2.84833,-0.65758 c 0.22249,-0.0514 0.44444,0.0874 0.49581,0.3098 z m 2.54665,-4.72619 1.06683,1.70729 -1.05265,0.65776 c -0.31138,0.19451 -0.23254,0.67058 0.12607,0.75339 l 2.84832,0.65758 c 0.22407,0.0516 0.44481,-0.0888 0.49581,-0.3098 l 0.65759,-2.84832 c 0.0826,-0.35771 -0.3098,-0.6387 -0.62188,-0.44359 l -1.05128,0.65691 -1.06616,-1.70744 c -0.96948,-1.55114 -3.23518,-1.55471 -4.20688,0 l -0.46413,0.74326 c -0.0907,0.14521 -0.0465,0.33644 0.0987,0.42718 l 0.87641,0.54764 c 0.14521,0.0907 0.33652,0.0466 0.42726,-0.0986 l 0.46408,-0.74266 c 0.32846,-0.52558 1.08451,-0.5084 1.40191,-6e-4 z m 5.53367,5.73949 -0.71094,-1.13856 c -0.0907,-0.14529 -0.28205,-0.1895 -0.42732,-0.0987 l -0.8749,0.54671 c -0.14521,0.0907 -0.1894,0.28202 -0.0987,0.42726 l 0.7122,1.13977 c 0.34254,0.54806 -0.0531,1.26504 -0.70115,1.26504 h -2.48005 v -1.23974 c 0,-0.36724 -0.4455,-0.5525 -0.70572,-0.29231 l -2.06706,2.06656 c -0.16146,0.16144 -0.16146,0.42321 0,0.58464 l 2.06706,2.06677 c 0.25843,0.25849 0.70572,0.0774 0.70572,-0.29236 v -1.23994 h 2.47737 c 1.94494,0 3.13508,-2.1445 2.10344,-3.79511 z"
       id="path2-3"
       style="display:inline;fill:#ffffff;fill-opacity:1;stroke-width:0.02583821" />
  </g>
</svg>
