<?xml version="1.0" encoding="UTF-8" standalone="no"?>
<svg
   xmlns:dc="http://purl.org/dc/elements/1.1/"
   xmlns:cc="http://creativecommons.org/ns#"
   xmlns:rdf="http://www.w3.org/1999/02/22-rdf-syntax-ns#"
   xmlns:svg="http://www.w3.org/2000/svg"
   xmlns="http://www.w3.org/2000/svg"
   xmlns:sodipodi="http://sodipodi.sourceforge.net/DTD/sodipodi-0.dtd"
   xmlns:inkscape="http://www.inkscape.org/namespaces/inkscape"
   id="svg8"
   version="1.1"
   viewBox="0 0 132.29166 132.29167"
   height="500"
   width="500"
   sodipodi:docname="overlaySync.svg"
   inkscape:version="0.92.5 (2060ec1f9f, 2020-04-08)">
  <sodipodi:namedview
     pagecolor="#ffffff"
     bordercolor="#666666"
     borderopacity="1"
     objecttolerance="10"
     gridtolerance="10"
     guidetolerance="10"
     inkscape:pageopacity="0"
     inkscape:pageshadow="2"
     inkscape:window-width="1848"
     inkscape:window-height="1016"
     id="namedview8"
     showgrid="false"
     inkscape:zoom="1.3350176"
     inkscape:cx="250"
     inkscape:cy="334.74576"
     inkscape:window-x="72"
     inkscape:window-y="27"
     inkscape:window-maximized="1"
     inkscape:current-layer="layer1" />
  <defs
     id="defs2" />
  <metadata
     id="metadata5">
    <rdf:RDF>
      <cc:Work
         rdf:about="">
        <dc:format>image/svg+xml</dc:format>
        <dc:type
           rdf:resource="http://purl.org/dc/dcmitype/StillImage" />
        <dc:title />
      </cc:Work>
    </rdf:RDF>
  </metadata>
  <g
     style="display:inline;fill:#ffb00f;fill-opacity:1"
     id="layer1">
    <path
       style="color:#000000;font-style:normal;font-variant:normal;font-weight:normal;font-stretch:normal;font-size:medium;line-height:normal;font-family:sans-serif;font-variant-ligatures:normal;font-variant-position:normal;font-variant-caps:normal;font-variant-numeric:normal;font-variant-alternates:normal;font-feature-settings:normal;text-indent:0;text-align:start;text-decoration:none;text-decoration-line:none;text-decoration-style:solid;text-decoration-color:#000000;letter-spacing:normal;word-spacing:normal;text-transform:none;writing-mode:lr-tb;direction:ltr;text-orientation:mixed;dominant-baseline:auto;baseline-shift:baseline;text-anchor:start;white-space:normal;shape-padding:0;clip-rule:nonzero;display:inline;overflow:visible;visibility:visible;isolation:auto;mix-blend-mode:normal;color-interpolation:sRGB;color-interpolation-filters:linearRGB;solid-color:#000000;solid-opacity:1;vector-effect:none;fill:#ffb00f;fill-opacity:1;fill-rule:evenodd;stroke:none;stroke-width:3.96875;stroke-linecap:round;stroke-linejoin:miter;stroke-miterlimit:4;stroke-dasharray:none;stroke-dashoffset:0;stroke-opacity:1;color-rendering:auto;image-rendering:auto;shape-rendering:auto;text-rendering:auto;enable-background:accumulate"
       d="M -1.984375,-1.984375 V 134.27539 H 134.27539 V -1.984375 Z m 9.4074049,9.4074049 97.1001701,-4.8e-6 20.34478,20.3447879 1e-5,97.100177 H 7.4230299 Z"
       id="path851"
       inkscape:connector-curvature="0" />
    <path
       inkscape:connector-curvature="0"
       d="m 125.51706,5.8479868 c -0.83381,-0.780734 -1.91588,-1.208708 -3.06383,-1.207694 -2.06594,0.0018 -3.84948,1.418347 -4.34192,3.383305 -0.0358,0.143041 -0.16328,0.244046 -0.31075,0.244046 h -1.52837 c -0.19998,0 -0.3519,-0.181555 -0.31491,-0.378098 0.5771,-3.064579 3.26774,-5.38299 6.5,-5.38299 1.77228,0 3.38173,0.697091 4.56927,1.831946 l 0.95258,-0.952581 c 0.40325,-0.403248 1.09274,-0.117648 1.09274,0.452646 v 3.575583 c 0,0.353533 -0.28659,0.640121 -0.64013,0.640121 h -3.57558 c -0.57029,0 -0.85589,-0.689491 -0.45264,-1.092767 z m -9.03424,4.3400202 h 3.57558 c 0.5703,0 0.8559,0.68949 0.45265,1.092767 l -1.11355,1.113543 c 0.83382,0.780761 1.91597,1.208736 3.06394,1.207695 2.06487,-0.0019 3.84913,-1.417441 4.34181,-3.383279 0.0359,-0.143041 0.16328,-0.2440472 0.31075,-0.2440472 h 1.5284 c 0.19998,0 0.3519,0.1815552 0.31491,0.3780992 -0.57712,3.064525 -3.26776,5.382937 -6.50003,5.382937 -1.77228,0 -3.38173,-0.697092 -4.56926,-1.831947 l -0.95258,0.952581 c -0.40325,0.403249 -1.09274,0.117648 -1.09274,-0.452646 v -3.575582 c 0,-0.353534 0.28659,-0.640121 0.64012,-0.640121 z"
       id="path2-3"
       style="fill:#ffffff;stroke-width:0.02667172" />
  </g>
</svg>
