<?xml version="1.0" encoding="UTF-8" standalone="no"?>
<svg
   xmlns:dc="http://purl.org/dc/elements/1.1/"
   xmlns:cc="http://creativecommons.org/ns#"
   xmlns:rdf="http://www.w3.org/1999/02/22-rdf-syntax-ns#"
   xmlns:svg="http://www.w3.org/2000/svg"
   xmlns="http://www.w3.org/2000/svg"
   xmlns:sodipodi="http://sodipodi.sourceforge.net/DTD/sodipodi-0.dtd"
   xmlns:inkscape="http://www.inkscape.org/namespaces/inkscape"
   aria-hidden="true"
   focusable="false"
   data-prefix="fas"
   data-icon="sync-alt"
   class="svg-inline--fa fa-sync-alt fa-w-16"
   role="img"
   viewBox="0 0 500 500"
   version="1.1"
   id="svg4"
   sodipodi:docname="syncAction.svg"
   width="500"
   height="500"
   inkscape:version="1.0.1 (0767f8302a, 2020-10-17)">
  <metadata
     id="metadata10">
    <rdf:RDF>
      <cc:Work
         rdf:about="">
        <dc:format>image/svg+xml</dc:format>
        <dc:type
           rdf:resource="http://purl.org/dc/dcmitype/StillImage" />
        <dc:title />
      </cc:Work>
    </rdf:RDF>
  </metadata>
  <defs
     id="defs8" />
  <sodipodi:namedview
     pagecolor="#ffffff"
     bordercolor="#666666"
     borderopacity="1"
     objecttolerance="10"
     gridtolerance="10"
     guidetolerance="10"
     inkscape:pageopacity="0"
     inkscape:pageshadow="2"
     inkscape:window-width="1850"
     inkscape:window-height="1016"
     id="namedview6"
     showgrid="false"
     inkscape:zoom="1.2015291"
     inkscape:cx="256"
     inkscape:cy="256"
     inkscape:window-x="70"
     inkscape:window-y="27"
     inkscape:window-maximized="1"
     inkscape:current-layer="svg4"
     inkscape:document-rotation="0" />
  <rect
     style="fill:#ffb00f;fill-opacity:1;stroke-width:0;stroke-linecap:round;stroke-linejoin:round"
     id="rect835"
     width="500"
     height="500"
     x="0"
     y="0" />
  <path
     fill="#ffffff"
     d="m 296.25807,200.51613 c -12.60565,-11.80323 -28.96452,-18.27339 -46.31936,-18.25806 -31.23306,0.0274 -58.19678,21.44274 -65.64153,51.14919 -0.54194,2.1625 -2.46855,3.68951 -4.69799,3.68951 h -23.10604 c -3.02339,0 -5.32016,-2.74476 -4.76089,-5.71612 C 160.45685,185.05 201.13427,150 250,150 c 26.79355,0 51.1254,10.53871 69.07863,27.69557 l 14.40121,-14.40122 C 339.57621,157.19799 350,161.51573 350,170.1375 v 54.05605 c 0,5.34476 -4.33266,9.67742 -9.67742,9.67742 h -54.05605 c -8.62177,0 -12.93952,-10.42379 -6.84314,-16.52057 z m -136.58065,65.6129 h 54.05605 c 8.62177,0 12.93952,10.42379 6.84314,16.52057 l -16.83468,16.83467 c 12.60565,11.80363 28.96573,18.2738 46.32097,18.25807 31.21694,-0.0282 58.19153,-21.42903 65.63992,-51.14879 0.54194,-2.1625 2.46855,-3.68952 4.69799,-3.68952 h 23.10645 c 3.02339,0 5.32016,2.74476 4.76089,5.71613 C 339.54315,314.95 298.86573,350 250,350 c -26.79355,0 -51.12541,-10.53871 -69.07863,-27.69557 l -14.40121,14.40122 C 160.42379,342.80201 150,338.48427 150,329.8625 v -54.05605 c 0,-5.34476 4.33266,-9.67742 9.67742,-9.67742 z"
     id="path2"
     style="stroke-width:0.403226" />
</svg>
