<?xml version="1.0" encoding="UTF-8" standalone="no"?>
<svg
   xmlns:dc="http://purl.org/dc/elements/1.1/"
   xmlns:cc="http://creativecommons.org/ns#"
   xmlns:rdf="http://www.w3.org/1999/02/22-rdf-syntax-ns#"
   xmlns:svg="http://www.w3.org/2000/svg"
   xmlns="http://www.w3.org/2000/svg"
   aria-hidden="true"
   focusable="false"
   data-prefix="fas"
   data-icon="upload"
   class="svg-inline--fa fa-upload fa-w-16"
   role="img"
   viewBox="0 0 500 500"
   version="1.1"
   id="svg4"
   width="500"
   height="500">
  <metadata
     id="metadata10">
    <rdf:RDF>
      <cc:Work
         rdf:about="">
        <dc:format>image/svg+xml</dc:format>
        <dc:type
           rdf:resource="http://purl.org/dc/dcmitype/StillImage" />
        <dc:title></dc:title>
      </cc:Work>
    </rdf:RDF>
  </metadata>
  <defs
     id="defs8" />
  <rect
     y="1.2866667e-06"
     x="7.2839504e-07"
     height="500"
     width="500"
     id="rect816"
     style="fill:#0e8290;fill-opacity:1;stroke:#ffffff;stroke-width:0;stroke-linecap:round;stroke-miterlimit:4;stroke-dasharray:none" />
  <path
     d="m 265.625,299.98535 h -31.25 c -5.19531,0 -9.375,-4.17969 -9.375,-9.375 v -65.625 h -34.25781 c -6.95313,0 -10.42969,-8.39844 -5.50782,-13.32031 l 59.41407,-59.45313 c 2.92969,-2.92969 7.73437,-2.92969 10.66406,0 l 59.45313,59.45313 c 4.92187,4.92187 1.44531,13.32031 -5.50782,13.32031 H 275 v 65.625 c 0,5.19531 -4.17969,9.375 -9.375,9.375 z m 84.375,-3.125 v 43.75 c 0,5.19531 -4.17969,9.375 -9.375,9.375 h -181.25 c -5.19531,0 -9.375,-4.17969 -9.375,-9.375 v -43.75 c 0,-5.19531 4.17969,-9.375 9.375,-9.375 H 212.5 v 3.125 c 0,12.07031 9.80469,21.875 21.875,21.875 h 31.25 c 12.07031,0 21.875,-9.80469 21.875,-21.875 v -3.125 h 53.125 c 5.19531,0 9.375,4.17969 9.375,9.375 z m -48.4375,34.375 c 0,-4.29687 -3.51563,-7.8125 -7.8125,-7.8125 -4.29687,0 -7.8125,3.51563 -7.8125,7.8125 0,4.29687 3.51563,7.8125 7.8125,7.8125 4.29687,0 7.8125,-3.51563 7.8125,-7.8125 z m 25,0 c 0,-4.29687 -3.51563,-7.8125 -7.8125,-7.8125 -4.29687,0 -7.8125,3.51563 -7.8125,7.8125 0,4.29687 3.51563,7.8125 7.8125,7.8125 4.29687,0 7.8125,-3.51563 7.8125,-7.8125 z"
     id="path2"
     style="fill:#ffffff;stroke-width:0.390625;fill-opacity:1" />
</svg>
