<?xml version="1.0" encoding="UTF-8" standalone="no"?>
<svg
   xmlns:dc="http://purl.org/dc/elements/1.1/"
   xmlns:cc="http://creativecommons.org/ns#"
   xmlns:rdf="http://www.w3.org/1999/02/22-rdf-syntax-ns#"
   xmlns:svg="http://www.w3.org/2000/svg"
   xmlns="http://www.w3.org/2000/svg"
   height="500"
   width="500"
   id="svg4"
   version="1.1"
   viewBox="0 0 500 500"
   role="img"
   class="svg-inline--fa fa-centos fa-w-14"
   data-icon="centos"
   data-prefix="fab"
   focusable="false"
   aria-hidden="true">
  <metadata
     id="metadata10">
    <rdf:RDF>
      <cc:Work
         rdf:about="">
        <dc:format>image/svg+xml</dc:format>
        <dc:type
           rdf:resource="http://purl.org/dc/dcmitype/StillImage" />
        <dc:title></dc:title>
      </cc:Work>
    </rdf:RDF>
  </metadata>
  <defs
     id="defs8" />
  <rect
     y="1.5769567e-06"
     x="8.2902426e-07"
     height="500"
     width="500"
     id="rect817"
     style="fill:#901b76;fill-opacity:0.94117647;stroke:#ffffff;stroke-width:0;stroke-linecap:round;stroke-miterlimit:4;stroke-dasharray:none" />
  <path
     style="fill:#ffffff;stroke-width:0.67054093;fill-opacity:1"
     id="path2"
     d="m 294.15512,143.92043 21.1891,21.25615 -51.16227,51.29637 v -72.55252 z m -108.89585,21.25615 51.16227,51.29637 v -72.55252 h -29.97317 z m 27.82745,-27.89451 h 29.97319 v 85.76219 l 7.24184,7.24184 7.24184,-7.24184 v -85.76219 h 29.97318 L 250.30175,100 Z M 230.65489,250 223.41306,242.75816 H 137.18149 V 212.71793 L 99.966475,250 137.18149,287.28207 v -30.04023 h 86.23157 z m 53.17391,-13.8802 h 72.35136 v -30.04023 l -21.1891,-21.25615 z M 400.03352,250 362.81851,212.71793 v 30.04023 H 277.19044 L 269.94859,250 l 7.24185,7.24184 h 85.62807 v 30.04023 z m -256.21368,-53.308 21.79258,-21.25615 60.54985,60.68395 h 10.25927 V 225.86053 L 175.8717,165.17658 197.0608,143.92043 H 143.81985 Z M 356.18016,143.92043 H 303.5427 l 21.18909,21.25615 -60.54984,60.68395 v 10.25927 h 10.25927 l 60.54985,-60.68395 21.18909,21.25615 z M 236.42154,356.07957 V 283.5941 l -51.16227,51.29638 21.1891,21.25614 h 29.97317 z M 143.81985,236.1198 h 72.95485 l -51.16228,-51.29638 -21.79258,21.25615 z m 212.36031,67.1882 -21.1891,21.25615 -60.54985,-60.68395 h -10.25927 v 10.25927 l 60.54984,60.68395 -21.18909,21.25615 h 52.63746 z m 0,-39.4278 H 283.8288 l 51.16226,51.29638 21.1891,-21.25615 z m -40.83594,70.94322 -51.16227,-51.29637 v 72.48547 h 29.97318 z M 165.61242,315.17658 216.7747,263.8802 h -72.95485 v 30.04023 z m 121.90435,47.54135 h -29.97319 v -85.76219 l -7.24184,-7.24184 -7.24184,7.24184 v 85.76219 H 213.08672 L 250.30174,400 Z M 175.8717,334.82342 236.42154,274.13947 V 263.8802 H 226.16228 L 165.61243,324.56415 143.81985,303.308 v 52.77157 h 53.24095 z" />
</svg>
