<?xml version="1.0" encoding="UTF-8" standalone="no"?>
<svg
   xmlns:dc="http://purl.org/dc/elements/1.1/"
   xmlns:cc="http://creativecommons.org/ns#"
   xmlns:rdf="http://www.w3.org/1999/02/22-rdf-syntax-ns#"
   xmlns:svg="http://www.w3.org/2000/svg"
   xmlns="http://www.w3.org/2000/svg"
   height="500"
   width="500"
   id="svg4"
   version="1.1"
   viewBox="0 0 500 500"
   role="img"
   class="svg-inline--fa fa-hdd fa-w-18"
   data-icon="hdd"
   data-prefix="far"
   focusable="false"
   aria-hidden="true">
  <metadata
     id="metadata10">
    <rdf:RDF>
      <cc:Work
         rdf:about="">
        <dc:format>image/svg+xml</dc:format>
        <dc:type
           rdf:resource="http://purl.org/dc/dcmitype/StillImage" />
        <dc:title></dc:title>
      </cc:Work>
    </rdf:RDF>
  </metadata>
  <defs
     id="defs8" />
  <rect
     y="0"
     x="0"
     height="500"
     width="500"
     id="rect817"
     style="opacity:0.97000002;fill:#808080;fill-opacity:1;stroke:none;stroke-width:8.67300034;stroke-linecap:round;stroke-miterlimit:3.70000005;stroke-dasharray:none;stroke-opacity:1" />
  <path
     style="fill:#ffffff;fill-opacity:1;stroke-width:0.52083331"
     id="path2"
     d="M 395.5224,239.39688 340.79323,160.72344 A 25,25 0 0 0 320.27031,150 H 179.72969 a 25,25 0 0 0 -20.52292,10.72344 L 104.4776,239.39688 A 25.000521,25.000521 0 0 0 100,253.67396 V 325 c 0,13.80729 11.19271,25 25,25 h 250 c 13.80729,0 25,-11.19271 25,-25 v -71.32604 c 0,-5.10469 -1.5625,-10.08646 -4.4776,-14.27708 z M 179.72969,175 H 320.27031 L 360.85,233.33333 H 139.15 Z M 375,325 H 125 v -66.66667 h 250 z m -16.66667,-33.33333 c 0,9.20468 -7.46198,16.66666 -16.66666,16.66666 C 332.46198,308.33333 325,300.87135 325,291.66667 325,282.46198 332.46198,275 341.66667,275 c 9.20468,0 16.66666,7.46198 16.66666,16.66667 z m -50,0 c 0,9.20468 -7.46198,16.66666 -16.66666,16.66666 C 282.46198,308.33333 275,300.87135 275,291.66667 275,282.46198 282.46198,275 291.66667,275 c 9.20468,0 16.66666,7.46198 16.66666,16.66667 z" />
</svg>
