<?xml version="1.0" encoding="UTF-8" standalone="no"?>
<svg
   xmlns:dc="http://purl.org/dc/elements/1.1/"
   xmlns:cc="http://creativecommons.org/ns#"
   xmlns:rdf="http://www.w3.org/1999/02/22-rdf-syntax-ns#"
   xmlns:svg="http://www.w3.org/2000/svg"
   xmlns="http://www.w3.org/2000/svg"
   xmlns:sodipodi="http://sodipodi.sourceforge.net/DTD/sodipodi-0.dtd"
   xmlns:inkscape="http://www.inkscape.org/namespaces/inkscape"
   aria-hidden="true"
   focusable="false"
   data-prefix="fas"
   data-icon="recycle"
   class="svg-inline--fa fa-recycle fa-w-16"
   role="img"
   viewBox="0 0 500 500"
   version="1.1"
   id="svg4"
   sodipodi:docname="resetAction.svg"
   width="500"
   height="500"
   inkscape:version="1.0.1 (0767f8302a, 2020-10-17)">
  <metadata
     id="metadata10">
    <rdf:RDF>
      <cc:Work
         rdf:about="">
        <dc:format>image/svg+xml</dc:format>
        <dc:type
           rdf:resource="http://purl.org/dc/dcmitype/StillImage" />
        <dc:title />
      </cc:Work>
    </rdf:RDF>
  </metadata>
  <defs
     id="defs8" />
  <sodipodi:namedview
     pagecolor="#ffffff"
     bordercolor="#666666"
     borderopacity="1"
     objecttolerance="10"
     gridtolerance="10"
     guidetolerance="10"
     inkscape:pageopacity="0"
     inkscape:pageshadow="2"
     inkscape:window-width="1850"
     inkscape:window-height="1016"
     id="namedview6"
     showgrid="false"
     inkscape:zoom="1"
     inkscape:cx="256"
     inkscape:cy="256"
     inkscape:window-x="70"
     inkscape:window-y="27"
     inkscape:window-maximized="1"
     inkscape:current-layer="svg4"
     inkscape:document-rotation="0" />
  <rect
     style="fill:#ff2400;fill-opacity:1;stroke-width:0;stroke-linecap:round;stroke-linejoin:round"
     id="rect835"
     width="500"
     height="500"
     x="0"
     y="0" />
  <path
     fill="#ffffff"
     d="m 222.09405,252.30584 c 1.26251,5.46757 -4.73554,9.62303 -9.40156,6.70624 l -15.91251,-9.94334 -19.86993,31.79759 c -5.18907,8.30272 0.80859,19.13356 10.59453,19.13356 h 20.30783 c 2.58867,0 4.6875,2.09882 4.6875,4.68748 v 15.62497 c 0,2.58867 -2.09883,4.6875 -4.6875,4.6875 h -20.26759 c -29.42736,0 -47.38362,-32.44057 -31.80002,-57.37489 l 19.85235,-31.79212 -15.90821,-9.9406 c -4.71914,-2.94804 -3.50234,-10.141 1.90586,-11.38982 l 43.06135,-9.94138 c 3.36368,-0.77657 6.71915,1.3207 7.49571,4.68358 z m 38.50042,-71.45101 16.12853,25.81088 -15.91408,9.94412 c -4.70742,2.94061 -3.51562,10.13786 1.90586,11.38982 l 43.06136,9.94138 c 3.3875,0.78086 6.72461,-1.34296 7.4957,-4.68358 l 9.94142,-43.06124 c 1.24882,-5.4078 -4.6836,-9.65584 -9.40157,-6.70624 l -15.89337,9.93124 -16.11837,-25.81324 c -14.65665,-23.45033 -48.9098,-23.50424 -63.60004,0 l -7.0168,11.2367 c -1.37109,2.19531 -0.70312,5.08632 1.49219,6.45819 l 13.24962,8.27928 c 2.19531,1.37187 5.0875,0.70429 6.45938,-1.49101 l 7.01601,-11.22771 c 4.96564,-7.94569 16.39572,-7.68593 21.19416,-0.009 z m 83.65864,86.77012 -10.74805,-17.21285 c -1.37148,-2.19648 -4.26406,-2.86484 -6.46016,-1.49258 l -13.22696,8.26522 c -2.19532,1.37187 -2.86328,4.26366 -1.49141,6.45936 l 10.76719,17.23121 c 5.17852,8.28554 -0.80351,19.12496 -10.6,19.12496 h -37.49377 v -18.74254 c 0,-5.55194 -6.73516,-8.35271 -10.66915,-4.41912 l -31.25002,31.24251 c -2.44101,2.44062 -2.44101,6.39804 0,8.83866 l 31.25002,31.24563 c 3.90704,3.90781 10.66915,1.17031 10.66915,-4.41991 v -18.74566 h 37.45315 c 29.40392,0 47.3965,-32.42065 31.80001,-57.37489 z"
     id="path2"
     style="stroke-width:0.390625" />
</svg>
