<?xml version="1.0" encoding="UTF-8" standalone="no"?>
<svg
   xmlns:dc="http://purl.org/dc/elements/1.1/"
   xmlns:cc="http://creativecommons.org/ns#"
   xmlns:rdf="http://www.w3.org/1999/02/22-rdf-syntax-ns#"
   xmlns:svg="http://www.w3.org/2000/svg"
   xmlns="http://www.w3.org/2000/svg"
   xmlns:sodipodi="http://sodipodi.sourceforge.net/DTD/sodipodi-0.dtd"
   xmlns:inkscape="http://www.inkscape.org/namespaces/inkscape"
   aria-hidden="true"
   focusable="false"
   data-prefix="fas"
   data-icon="recycle"
   class="svg-inline--fa fa-recycle fa-w-16"
   role="img"
   viewBox="0 0 500 500"
   version="1.1"
   id="svg4"
   sodipodi:docname="resetAction.svg"
   width="500"
   height="500"
   inkscape:version="1.0.1 (0767f8302a, 2020-10-17)">
  <metadata
     id="metadata10">
    <rdf:RDF>
      <cc:Work
         rdf:about="">
        <dc:format>image/svg+xml</dc:format>
        <dc:type
           rdf:resource="http://purl.org/dc/dcmitype/StillImage" />
        <dc:title />
      </cc:Work>
    </rdf:RDF>
  </metadata>
  <defs
     id="defs8" />
  <sodipodi:namedview
     pagecolor="#ffffff"
     bordercolor="#666666"
     borderopacity="1"
     objecttolerance="10"
     gridtolerance="10"
     guidetolerance="10"
     inkscape:pageopacity="0"
     inkscape:pageshadow="2"
     inkscape:window-width="1850"
     inkscape:window-height="1016"
     id="namedview6"
     showgrid="false"
     inkscape:zoom="1"
     inkscape:cx="46"
     inkscape:cy="256"
     inkscape:window-x="70"
     inkscape:window-y="27"
     inkscape:window-maximized="1"
     inkscape:current-layer="svg4"
     inkscape:document-rotation="0" />
  <path
     d="m 205.38458,253.6619 c 2.01848,8.74144 -7.57108,15.38509 -15.03101,10.72179 L 164.913,248.4865 133.14539,299.32379 c -8.29617,13.27421 1.29276,30.59032 16.93831,30.59032 h 32.4677 c 4.13872,0 7.49428,3.35554 7.49428,7.49424 v 24.98085 c 0,4.13871 -3.35556,7.49427 -7.49428,7.49427 h -32.40337 c -47.04782,0 -75.755889,-51.86526 -50.841165,-91.72971 L 131.04635,227.32522 105.61266,211.4324 c -7.544855,-4.71326 -5.59946,-16.2132 3.04705,-18.20979 l 68.84553,-15.89406 c 5.37778,-1.24157 10.74244,2.11151 11.98399,7.48801 z m 61.55363,-114.2343 25.78594,41.26587 -25.44308,15.89844 c -7.52612,4.70137 -5.6207,16.20819 3.04704,18.20979 l 68.84556,15.89406 c 5.41586,1.24842 10.75117,-2.14709 11.98396,-7.488 l 15.89413,-68.84537 c 1.99658,-8.64587 -7.48804,-15.43754 -15.03102,-10.72179 l -25.40998,15.87785 -25.76969,-41.26965 c -23.43274,-37.491868 -78.19593,-37.578064 -101.68236,0 l -11.2183,17.965 c -2.19207,3.50981 -1.12414,8.13189 2.38568,10.32521 l 21.1832,13.23673 c 3.50981,2.19332 8.13379,1.12601 10.32712,-2.38379 l 11.21704,-17.95062 c 7.93895,-12.7034 26.21312,-12.2881 33.88476,-0.0144 z m 133.7516,138.72616 -17.18375,-27.51953 c -2.19269,-3.51168 -6.81728,-4.58024 -10.32836,-2.3863 l -21.14697,13.21425 c -3.50983,2.19332 -4.57775,6.81664 -2.38443,10.32708 l 17.21434,27.54889 c 8.2793,13.24674 -1.28463,30.57656 -16.94705,30.57656 h -59.94421 v -29.96516 c 0,-8.87632 -10.76803,-13.35413 -17.05761,-7.06519 l -49.96184,49.94983 c -3.90264,3.90201 -3.90264,10.22905 0,14.13106 l 49.96184,49.95483 c 6.24649,6.24772 17.05761,1.87106 17.05761,-7.06646 v -29.97015 h 59.87927 c 47.01034,0 75.77648,-51.83342 50.84116,-91.72971 z"
     id="path2"
     style="fill:#000000;fill-opacity:1;stroke:#ffffff;stroke-width:5.32926;stroke-miterlimit:4;stroke-dasharray:none;stroke-opacity:1" />
</svg>
