<?xml version="1.0" encoding="UTF-8" standalone="no"?>
<svg
   xmlns:dc="http://purl.org/dc/elements/1.1/"
   xmlns:cc="http://creativecommons.org/ns#"
   xmlns:rdf="http://www.w3.org/1999/02/22-rdf-syntax-ns#"
   xmlns:svg="http://www.w3.org/2000/svg"
   xmlns="http://www.w3.org/2000/svg"
   xmlns:sodipodi="http://sodipodi.sourceforge.net/DTD/sodipodi-0.dtd"
   xmlns:inkscape="http://www.inkscape.org/namespaces/inkscape"
   aria-hidden="true"
   focusable="false"
   data-prefix="fas"
   data-icon="sync-alt"
   class="svg-inline--fa fa-sync-alt fa-w-16"
   role="img"
   viewBox="0 0 500 500"
   version="1.1"
   id="svg4"
   sodipodi:docname="syncAction.svg"
   width="500"
   height="500"
   inkscape:version="1.0.1 (0767f8302a, 2020-10-17)">
  <metadata
     id="metadata10">
    <rdf:RDF>
      <cc:Work
         rdf:about="">
        <dc:format>image/svg+xml</dc:format>
        <dc:type
           rdf:resource="http://purl.org/dc/dcmitype/StillImage" />
        <dc:title />
      </cc:Work>
    </rdf:RDF>
  </metadata>
  <defs
     id="defs8" />
  <sodipodi:namedview
     pagecolor="#ffffff"
     bordercolor="#666666"
     borderopacity="1"
     objecttolerance="10"
     gridtolerance="10"
     guidetolerance="10"
     inkscape:pageopacity="0"
     inkscape:pageshadow="2"
     inkscape:window-width="1245"
     inkscape:window-height="1376"
     id="namedview6"
     showgrid="false"
     inkscape:zoom="1"
     inkscape:cx="256"
     inkscape:cy="256"
     inkscape:window-x="1315"
     inkscape:window-y="27"
     inkscape:window-maximized="0"
     inkscape:current-layer="svg4"
     inkscape:document-rotation="0" />
  <path
     d="m 319.3871,175.7742 c -18.90847,-17.70485 -43.44678,-27.41009 -69.47904,-27.38709 -46.84959,0.0411 -87.29517,32.1641 -98.46229,76.72378 -0.81291,3.24375 -3.70283,5.53427 -7.04699,5.53427 h -34.65906 c -4.53508,0 -7.98024,-4.11715 -7.14133,-8.57418 C 115.68527,152.575 176.7014,100 250,100 c 40.19032,0 76.6881,15.80806 103.61794,41.54336 l 21.60182,-21.60183 C 384.36432,110.79698 400,117.27359 400,130.20625 v 81.08407 c 0,8.01714 -6.49899,14.51614 -14.51613,14.51614 h -81.08408 c -12.93265,0 -19.40928,-15.63569 -10.26471,-24.78086 z m -204.87097,98.41934 h 81.08407 c 12.93266,0 19.40928,15.63569 10.26471,24.78086 l -25.25202,25.25201 c 18.90848,17.70544 43.4486,27.4107 69.48146,27.3871 46.82541,-0.0423 87.2873,-32.14355 98.45988,-76.72319 0.81291,-3.24375 3.70283,-5.53428 7.04699,-5.53428 h 34.65967 c 4.53508,0 7.98024,4.11714 7.14134,8.5742 C 384.31473,347.425 323.29859,400 250,400 209.80967,400 173.31189,384.19194 146.38205,358.45665 l -21.60181,21.60183 C 115.63568,389.20302 100,382.7264 100,369.79375 v -81.08407 c 0,-8.01714 6.49899,-14.51613 14.51613,-14.51614 z"
     id="path2"
     style="fill:#000000;fill-opacity:1;stroke-width:15;stroke:#ffffff;stroke-opacity:1;stroke-miterlimit:4;stroke-dasharray:none" />
</svg>
