<?xml version="1.0" encoding="UTF-8" standalone="no"?>
<svg
   xmlns:dc="http://purl.org/dc/elements/1.1/"
   xmlns:cc="http://creativecommons.org/ns#"
   xmlns:rdf="http://www.w3.org/1999/02/22-rdf-syntax-ns#"
   xmlns:svg="http://www.w3.org/2000/svg"
   xmlns="http://www.w3.org/2000/svg"
   xmlns:sodipodi="http://sodipodi.sourceforge.net/DTD/sodipodi-0.dtd"
   xmlns:inkscape="http://www.inkscape.org/namespaces/inkscape"
   height="500"
   width="500"
   id="svg4"
   version="1.1"
   viewBox="0 0 500 500"
   role="img"
   class="svg-inline--fa fa-chart-pie fa-w-17"
   data-icon="chart-pie"
   data-prefix="fas"
   focusable="false"
   aria-hidden="true"
   sodipodi:docname="partition.svg"
   inkscape:version="0.92.5 (2060ec1f9f, 2020-04-08)">
  <sodipodi:namedview
     pagecolor="#ffffff"
     bordercolor="#666666"
     borderopacity="1"
     objecttolerance="10"
     gridtolerance="10"
     guidetolerance="10"
     inkscape:pageopacity="0"
     inkscape:pageshadow="2"
     inkscape:window-width="760"
     inkscape:window-height="480"
     id="namedview6"
     showgrid="false"
     inkscape:zoom="0.472"
     inkscape:cx="250"
     inkscape:cy="250"
     inkscape:window-x="72"
     inkscape:window-y="27"
     inkscape:window-maximized="0"
     inkscape:current-layer="svg4" />
  <metadata
     id="metadata10">
    <rdf:RDF>
      <cc:Work
         rdf:about="">
        <dc:format>image/svg+xml</dc:format>
        <dc:type
           rdf:resource="http://purl.org/dc/dcmitype/StillImage" />
        <dc:title />
      </cc:Work>
    </rdf:RDF>
  </metadata>
  <defs
     id="defs8" />
  <path
     style="fill:#ffffff;stroke-width:0.55146879;fill-opacity:1"
     id="path2"
     d="M 397.06092,263.64643 H 266.20289 l 87.14861,87.14861 c 3.33087,3.33087 8.81247,3.60109 12.23709,0.375 21.34185,-20.10655 36.02194,-47.21124 40.32892,-77.67989 0.73896,-5.2169 -3.59007,-9.84372 -8.85659,-9.84372 z m -8.72975,-35.73518 c -4.54411,-65.87846 -57.18732,-118.52167 -123.06578,-123.06578 -5.0294,-0.34742 -9.26468,3.89337 -9.26468,8.9338 v 123.39666 h 123.40218 c 5.04042,0 9.2757,-4.23529 8.92828,-9.26468 z M 229.53021,263.64643 V 132.7884 c 0,-5.26653 -4.62682,-9.59556 -9.8382,-8.85659 -65.71854,9.28673 -115.95183,66.70015 -113.6136,135.50691 2.4044,70.66521 63.24796,128.61355 133.94625,127.72569 27.79403,-0.34743 53.47593,-9.30328 74.59167,-24.28117 4.35661,-3.08823 4.64337,-9.50181 0.86581,-13.27937 z" />
</svg>
