<?xml version="1.0" encoding="UTF-8" standalone="no"?>
<svg
   xmlns:dc="http://purl.org/dc/elements/1.1/"
   xmlns:cc="http://creativecommons.org/ns#"
   xmlns:rdf="http://www.w3.org/1999/02/22-rdf-syntax-ns#"
   xmlns:svg="http://www.w3.org/2000/svg"
   xmlns="http://www.w3.org/2000/svg"
   xmlns:sodipodi="http://sodipodi.sourceforge.net/DTD/sodipodi-0.dtd"
   xmlns:inkscape="http://www.inkscape.org/namespaces/inkscape"
   aria-hidden="true"
   focusable="false"
   data-prefix="fas"
   data-icon="recycle"
   class="svg-inline--fa fa-recycle fa-w-16"
   role="img"
   viewBox="0 0 500 500"
   version="1.1"
   id="svg4"
   sodipodi:docname="reinstall.svg"
   width="500"
   height="500"
   inkscape:version="0.92.5 (2060ec1f9f, 2020-04-08)">
  <metadata
     id="metadata10">
    <rdf:RDF>
      <cc:Work
         rdf:about="">
        <dc:format>image/svg+xml</dc:format>
        <dc:type
           rdf:resource="http://purl.org/dc/dcmitype/StillImage" />
        <dc:title />
      </cc:Work>
    </rdf:RDF>
  </metadata>
  <defs
     id="defs8" />
  <sodipodi:namedview
     pagecolor="#ffffff"
     bordercolor="#666666"
     borderopacity="1"
     objecttolerance="10"
     gridtolerance="10"
     guidetolerance="10"
     inkscape:pageopacity="0"
     inkscape:pageshadow="2"
     inkscape:window-width="1848"
     inkscape:window-height="1016"
     id="namedview6"
     showgrid="false"
     inkscape:zoom="1"
     inkscape:cx="-315"
     inkscape:cy="252"
     inkscape:window-x="72"
     inkscape:window-y="27"
     inkscape:window-maximized="1"
     inkscape:current-layer="svg4"
     inkscape:document-rotation="0" />
  <path
     style="fill:#ffffff;fill-opacity:1;stroke:#ffffff;stroke-width:0;stroke-miterlimit:4;stroke-dasharray:none;stroke-opacity:1"
     d="m 249.42578,92.097656 c -23.3303,-0.409158 -44.71737,15.641884 -54.0957,36.464844 -3.88719,4.13791 -9.27044,11.77027 -3.37305,16.5918 7.38558,4.42042 14.49424,9.80858 22.22266,13.38672 7.70362,0.80514 9.24906,-8.79855 12.73437,-13.5586 5.07259,-9.83174 15.44317,-19.67908 27.48438,-16.52344 11.15487,2.50995 17.07396,12.85656 21.83058,22.17039 6.44425,10.34593 13.23776,20.30611 18.96825,31.01711 -9.98265,7.45729 -23.81444,11.26782 -30.54493,22.22461 -0.62102,8.12534 8.88135,10.76801 15.30664,11.01172 21.31907,4.5423 42.25152,11.13046 63.95704,13.70508 8.75989,-5.41092 6.54331,-16.99445 9.66947,-25.41942 3.86305,-18.06007 9.94923,-35.76434 11.19967,-54.30128 -3.80706,-7.20137 -13.53984,-4.4097 -18.08594,0.44336 -7.02731,3.99813 -14.20116,9.79013 -21.13086,12.5 -14.29642,-20.36801 -23.47372,-45.81871 -44.44731,-60.737 -9.41437,-5.93983 -20.55887,-9.126913 -31.69527,-8.975894 z m -69.375,87.060544 c -25.02154,5.6124 -50.45017,10.11545 -74.90625,18.05664 -5.422538,6.2534 1.09564,14.55547 7.64258,16.39454 6.94646,4.48723 14.3239,8.33646 20.85351,13.44726 -13.40031,23.80086 -32.07057,45.08744 -40.560665,71.38372 -6.878454,31.89082 18.262505,67.69096 51.518115,69.03994 13.20031,0.93746 26.82835,0.69661 39.81404,-0.14046 7.40297,-5.30355 1.84963,-15.01788 3.75391,-22.2207 0.93224,-5.26719 -0.33674,-13.56901 -7.27149,-13.3418 -14.8401,-1.14417 -31.48538,4.13196 -44.75781,-4.70703 -10.1836,-8.18067 -10.28391,-24.87565 -1.40564,-34.05703 10.05267,-15.50897 19.67933,-32.6503 29.99744,-47.14219 10.84048,5.83521 20.32596,15.71956 32.68164,17.88086 7.73127,-2.22547 6.86315,-12.09146 4.04882,-17.84375 -5.7636,-21.58159 -8.10644,-44.40418 -16.68359,-65.05664 -1.27827,-1.16005 -3.0053,-1.74764 -4.72461,-1.69336 z m 197.23242,70.0586 c -9.76485,3.65403 -18.20507,10.03899 -26.41797,16.33008 -0.29976,8.57092 7.26441,14.26283 10.66016,21.42773 6.73305,9.07484 14.22106,21.51647 8.05859,32.9082 -5.51805,10.68585 -18.86258,14.06395 -29.94722,11.99629 -17.25691,-0.11141 -34.60045,0.45714 -51.7852,-0.33418 -0.82429,-12.12705 2.56492,-25.62184 -2.16992,-37.26367 -5.99084,-5.32582 -13.86688,0.61566 -17.25781,6.03516 -15.31903,16.12829 -32.77803,30.30979 -46.26172,48.125 0.46438,10.01041 11.10089,14.12612 16.48882,21.19862 13.26514,12.84281 25.06272,27.36874 40.10102,38.26622 8.12839,0.61375 10.96293,-9.13589 9.2168,-15.56641 0,-8.16601 0,-16.33203 0,-24.49804 27.00707,-1.19317 54.78566,3.08334 81.45211,-3.11641 30.68079,-10.48211 48.47899,-50.01566 32.81742,-79.19609 -6.46905,-12.66591 -14.25891,-24.96865 -23.0293,-35.97852 -0.58646,-0.30507 -1.27065,-0.4513 -1.92578,-0.33398 z"
     id="path2"
     inkscape:connector-curvature="0" />
</svg>
