<?xml version="1.0" encoding="UTF-8" standalone="no"?>
<svg
   xmlns:dc="http://purl.org/dc/elements/1.1/"
   xmlns:cc="http://creativecommons.org/ns#"
   xmlns:rdf="http://www.w3.org/1999/02/22-rdf-syntax-ns#"
   xmlns:svg="http://www.w3.org/2000/svg"
   xmlns="http://www.w3.org/2000/svg"
   xmlns:sodipodi="http://sodipodi.sourceforge.net/DTD/sodipodi-0.dtd"
   xmlns:inkscape="http://www.inkscape.org/namespaces/inkscape"
   aria-hidden="true"
   focusable="false"
   data-prefix="fas"
   data-icon="tools"
   class="svg-inline--fa fa-tools fa-w-16"
   role="img"
   viewBox="0 0 500 500"
   version="1.1"
   id="svg4"
   sodipodi:docname="settings.svg"
   width="500"
   height="500"
   inkscape:version="0.92.5 (2060ec1f9f, 2020-04-08)">
  <metadata
     id="metadata10">
    <rdf:RDF>
      <cc:Work
         rdf:about="">
        <dc:format>image/svg+xml</dc:format>
        <dc:type
           rdf:resource="http://purl.org/dc/dcmitype/StillImage" />
        <dc:title />
      </cc:Work>
    </rdf:RDF>
  </metadata>
  <defs
     id="defs8" />
  <sodipodi:namedview
     pagecolor="#ffffff"
     bordercolor="#666666"
     borderopacity="1"
     objecttolerance="10"
     gridtolerance="10"
     guidetolerance="10"
     inkscape:pageopacity="0"
     inkscape:pageshadow="2"
     inkscape:window-width="1245"
     inkscape:window-height="1016"
     id="namedview6"
     showgrid="false"
     inkscape:zoom="1"
     inkscape:cx="-109"
     inkscape:cy="256"
     inkscape:window-x="72"
     inkscape:window-y="27"
     inkscape:window-maximized="0"
     inkscape:current-layer="svg4" />
  <path
     style="fill:#ffffff;fill-opacity:1;stroke:#ffffff;stroke-width:0;stroke-miterlimit:4;stroke-dasharray:none;stroke-opacity:1"
     d="m 393.62623,331.83283 -68.60946,-68.60658 c -13.5344,-13.53384 -33.74812,-16.1703 -50.03628,-8.14374 L 212.52303,192.62767 V 156.24451 L 137.52721,100 l -37.49791,37.49634 56.24686,74.99267 h 36.3847 l 62.45746,62.45484 c -7.96831,16.28748 -5.39033,36.50034 8.14407,50.03418 l 68.60947,68.60658 c 8.55421,8.55385 22.38156,8.55385 30.87718,0 l 30.87719,-30.87589 c 8.49562,-8.55385 8.49562,-22.38063 0,-30.87589 z M 294.37394,231.82306 c 16.58111,0 32.16618,6.44469 43.88428,18.16229 l 11.36655,11.36608 c 9.2573,-4.04257 18.04587,-9.66702 25.66264,-17.28347 21.73707,-21.73616 29.11947,-52.31911 22.20579,-80.08983 -1.28899,-5.27292 -7.90971,-7.08915 -11.77669,-3.22234 l -43.59132,43.58949 -39.78294,-6.62045 -6.62072,-39.78127 43.59132,-43.58949 c 3.86697,-3.86681 1.99207,-10.48726 -3.33966,-11.83478 -27.77189,-6.854803 -58.35613,0.52729 -80.03461,22.20486 -16.69829,16.69759 -24.54941,38.72669 -24.13928,60.6972 l 48.10279,48.10077 c 4.74583,-1.11318 9.66743,-1.69906 14.47185,-1.69906 z m -60.87551,48.04219 -33.22081,-33.21941 -89.2919,89.34674 c -14.647625,14.64701 -14.647625,38.37516 0,53.02216 14.64762,14.64701 38.37677,14.64701 53.02439,0 l 72.41784,-72.4148 c -4.45288,-11.65902 -5.80046,-24.37262 -2.92952,-36.73469 z m -95.97122,96.67024 c -7.73395,0 -14.06172,-6.3275 -14.06172,-14.06112 0,-7.79221 6.26918,-14.06113 14.06172,-14.06113 7.79253,0 14.06172,6.26892 14.06172,14.06113 0,7.73362 -6.26919,14.06112 -14.06172,14.06112 z"
     id="path2"
     inkscape:connector-curvature="0" />
</svg>
