<?xml version="1.0" encoding="UTF-8" standalone="no"?>
<svg
   xmlns:dc="http://purl.org/dc/elements/1.1/"
   xmlns:cc="http://creativecommons.org/ns#"
   xmlns:rdf="http://www.w3.org/1999/02/22-rdf-syntax-ns#"
   xmlns:svg="http://www.w3.org/2000/svg"
   xmlns="http://www.w3.org/2000/svg"
   xmlns:sodipodi="http://sodipodi.sourceforge.net/DTD/sodipodi-0.dtd"
   xmlns:inkscape="http://www.inkscape.org/namespaces/inkscape"
   aria-hidden="true"
   focusable="false"
   data-prefix="fas"
   data-icon="chevron-left"
   class="svg-inline--fa fa-chevron-left fa-w-10"
   role="img"
   viewBox="0 0 500 500"
   version="1.1"
   id="svg4"
   width="500"
   height="500"
   sodipodi:docname="back.svg"
   inkscape:version="0.92.5 (2060ec1f9f, 2020-04-08)">
  <sodipodi:namedview
     pagecolor="#ffffff"
     bordercolor="#666666"
     borderopacity="1"
     objecttolerance="10"
     gridtolerance="10"
     guidetolerance="10"
     inkscape:pageopacity="0"
     inkscape:pageshadow="2"
     inkscape:window-width="1848"
     inkscape:window-height="1016"
     id="namedview6"
     showgrid="false"
     inkscape:zoom="1.888"
     inkscape:cx="207.62712"
     inkscape:cy="250"
     inkscape:window-x="72"
     inkscape:window-y="27"
     inkscape:window-maximized="1"
     inkscape:current-layer="svg4" />
  <metadata
     id="metadata10">
    <rdf:RDF>
      <cc:Work
         rdf:about="">
        <dc:format>image/svg+xml</dc:format>
        <dc:type
           rdf:resource="http://purl.org/dc/dcmitype/StillImage" />
        <dc:title />
      </cc:Work>
    </rdf:RDF>
  </metadata>
  <defs
     id="defs8" />
  <path
     style="fill:currentColor;stroke:#ffffff;stroke-width:0;stroke-miterlimit:4;stroke-dasharray:none;stroke-opacity:1"
     d="m 308.6875,106.01367 c -11.96399,2.99402 -17.13736,15.55307 -26.49148,22.4658 -38.75235,39.51356 -79.3392,77.44898 -116.73508,118.1553 -2.42139,9.84939 8.11997,15.99723 13.89757,22.04423 42.10183,41.46382 82.84172,84.50997 126.02235,124.76045 10.49303,2.70036 16.16618,-8.67742 23.09291,-14.23337 5.0933,-4.22398 9.35833,-12.3903 3.73717,-17.93264 -7.82253,-10.05222 -18.47798,-17.44057 -26.61315,-27.23329 -27.87256,-28.0035 -55.74418,-56.00793 -83.61732,-84.01085 37.20488,-38.50608 76.60294,-75.03413 112.57617,-114.63477 2.5173,-10.43344 -8.86076,-15.70208 -14.2793,-22.60937 -3.05385,-3.29431 -6.71376,-6.98066 -11.58984,-6.77149 z"
     id="path2"
     inkscape:connector-curvature="0" />
</svg>
