<?xml version="1.0" encoding="UTF-8" standalone="no"?>
<svg
   xmlns:dc="http://purl.org/dc/elements/1.1/"
   xmlns:cc="http://creativecommons.org/ns#"
   xmlns:rdf="http://www.w3.org/1999/02/22-rdf-syntax-ns#"
   xmlns:svg="http://www.w3.org/2000/svg"
   xmlns="http://www.w3.org/2000/svg"
   height="500"
   width="500"
   id="svg4"
   version="1.1"
   viewBox="0 0 500 500"
   role="img"
   class="svg-inline--fa fa-list fa-w-16"
   data-icon="list"
   data-prefix="fas"
   focusable="false"
   aria-hidden="true">
  <metadata
     id="metadata10">
    <rdf:RDF>
      <cc:Work
         rdf:about="">
        <dc:format>image/svg+xml</dc:format>
        <dc:type
           rdf:resource="http://purl.org/dc/dcmitype/StillImage" />
        <dc:title></dc:title>
      </cc:Work>
    </rdf:RDF>
  </metadata>
  <defs
     id="defs8" />
  <path
     style="fill:currentColor;stroke-width:0.5859375"
     id="path2"
     d="m 146.875,315.625 h -37.5 A 9.375,9.375 0 0 0 100,325 v 37.5 a 9.375,9.375 0 0 0 9.375,9.375 h 37.5 A 9.375,9.375 0 0 0 156.25,362.5 V 325 a 9.375,9.375 0 0 0 -9.375,-9.375 z m 0,-187.5 h -37.5 A 9.375,9.375 0 0 0 100,137.5 V 175 a 9.375,9.375 0 0 0 9.375,9.375 h 37.5 A 9.375,9.375 0 0 0 156.25,175 v -37.5 a 9.375,9.375 0 0 0 -9.375,-9.375 z m 0,93.75 h -37.5 A 9.375,9.375 0 0 0 100,231.25 v 37.5 a 9.375,9.375 0 0 0 9.375,9.375 h 37.5 a 9.375,9.375 0 0 0 9.375,-9.375 v -37.5 a 9.375,9.375 0 0 0 -9.375,-9.375 z M 390.625,325 h -187.5 a 9.375,9.375 0 0 0 -9.375,9.375 v 18.75 a 9.375,9.375 0 0 0 9.375,9.375 h 187.5 A 9.375,9.375 0 0 0 400,353.125 v -18.75 A 9.375,9.375 0 0 0 390.625,325 Z m 0,-187.5 h -187.5 a 9.375,9.375 0 0 0 -9.375,9.375 v 18.75 a 9.375,9.375 0 0 0 9.375,9.375 h 187.5 A 9.375,9.375 0 0 0 400,165.625 v -18.75 a 9.375,9.375 0 0 0 -9.375,-9.375 z m 0,93.75 h -187.5 a 9.375,9.375 0 0 0 -9.375,9.375 v 18.75 a 9.375,9.375 0 0 0 9.375,9.375 h 187.5 A 9.375,9.375 0 0 0 400,259.375 v -18.75 a 9.375,9.375 0 0 0 -9.375,-9.375 z" />
</svg>
