<?xml version="1.0" encoding="UTF-8" standalone="no"?>
<svg
   xmlns:dc="http://purl.org/dc/elements/1.1/"
   xmlns:cc="http://creativecommons.org/ns#"
   xmlns:rdf="http://www.w3.org/1999/02/22-rdf-syntax-ns#"
   xmlns:svg="http://www.w3.org/2000/svg"
   xmlns="http://www.w3.org/2000/svg"
   height="500"
   width="500"
   id="svg4"
   version="1.1"
   viewBox="0 0 500 500"
   role="img"
   class="svg-inline--fa fa-terminal fa-w-20"
   data-icon="terminal"
   data-prefix="fas"
   focusable="false"
   aria-hidden="true">
  <metadata
     id="metadata10">
    <rdf:RDF>
      <cc:Work
         rdf:about="">
        <dc:format>image/svg+xml</dc:format>
        <dc:type
           rdf:resource="http://purl.org/dc/dcmitype/StillImage" />
        <dc:title></dc:title>
      </cc:Work>
    </rdf:RDF>
  </metadata>
  <defs
     id="defs8" />
  <path
     style="fill:currentColor;stroke-width:0.46874961"
     id="path2"
     d="m 220.92874,256.62923 -91.09821,91.09821 c -4.39359,4.39359 -11.51671,4.39359 -15.90983,0 l -10.62562,-10.62515 c -4.386085,-4.38609 -4.394523,-11.49467 -0.0187,-15.89108 l 72.19776,-72.53713 -72.19729,-72.53666 c -4.375774,-4.3964 -4.367337,-11.50499 0.0188,-15.89108 L 113.9207,149.6212 c 4.39359,-4.39359 11.51671,-4.39359 15.90983,0 l 91.09821,91.0982 c 4.39359,4.39313 4.39359,11.51624 0,15.90983 z M 400,342.42401 v -14.99999 c 0,-6.21328 -5.03671,-11.24999 -11.24999,-11.24999 H 246.25013 c -6.21328,0 -11.24999,5.03671 -11.24999,11.24999 v 14.99999 c 0,6.21328 5.03671,11.24999 11.24999,11.24999 H 388.75001 C 394.96329,353.674 400,348.63729 400,342.42401 Z" />
</svg>
