<?xml version="1.0" encoding="UTF-8" standalone="no"?>
<svg
   xmlns:dc="http://purl.org/dc/elements/1.1/"
   xmlns:cc="http://creativecommons.org/ns#"
   xmlns:rdf="http://www.w3.org/1999/02/22-rdf-syntax-ns#"
   xmlns:svg="http://www.w3.org/2000/svg"
   xmlns="http://www.w3.org/2000/svg"
   xmlns:sodipodi="http://sodipodi.sourceforge.net/DTD/sodipodi-0.dtd"
   xmlns:inkscape="http://www.inkscape.org/namespaces/inkscape"
   aria-hidden="true"
   focusable="false"
   data-prefix="fab"
   data-icon="ubuntu"
   class="svg-inline--fa fa-ubuntu fa-w-16"
   role="img"
   viewBox="0 0 500 500"
   version="1.1"
   id="svg853"
   sodipodi:docname="test.svg"
   width="500"
   height="500"
   inkscape:version="1.0.1 (0767f8302a, 2020-10-17)">
  <sodipodi:namedview
     pagecolor="#ffffff"
     bordercolor="#666666"
     borderopacity="1"
     objecttolerance="10"
     gridtolerance="10"
     guidetolerance="10"
     inkscape:pageopacity="0"
     inkscape:pageshadow="2"
     inkscape:window-width="1850"
     inkscape:window-height="1016"
     id="namedview837"
     showgrid="false"
     inkscape:zoom="1.1504296"
     inkscape:cx="248"
     inkscape:cy="256"
     inkscape:window-x="70"
     inkscape:window-y="27"
     inkscape:window-maximized="1"
     inkscape:current-layer="svg853" />
  <metadata
     id="metadata859">
    <rdf:RDF>
      <cc:Work
         rdf:about="">
        <dc:format>image/svg+xml</dc:format>
        <dc:type
           rdf:resource="http://purl.org/dc/dcmitype/StillImage" />
        <dc:title></dc:title>
      </cc:Work>
    </rdf:RDF>
  </metadata>
  <defs
     id="defs857" />
  <rect
     style="display:inline;fill:#dd4814;stroke-width:0;stroke-linecap:round;stroke-linejoin:round"
     id="rect839"
     width="500"
     height="500"
     x="0"
     y="0" />
  <path
     fill="#ffffff"
     d="m 250,100 c -82.8629,0 -150,67.13709 -150,150 0,82.8629 67.1371,150 150,150 82.86291,0 150,-67.1371 150,-150 0,-82.86291 -67.13709,-150 -150,-150 z m 31.87501,56.25 c 5.32257,-9.19355 17.11693,-12.39919 26.31048,-7.07662 9.25404,5.32259 12.39919,17.11694 7.07661,26.37097 -5.32258,9.19355 -17.11693,12.3992 -26.31049,7.07661 -9.25402,-5.38306 -12.39919,-17.17742 -7.0766,-26.37096 z m -129.0121,113.04436 c -10.64516,0 -19.29436,-8.6492 -19.29436,-19.29436 0,-10.64517 8.6492,-19.29436 19.29436,-19.29436 10.64516,0 19.29435,8.64919 19.29435,19.29436 0,10.64516 -8.64919,19.29436 -19.29435,19.29436 z m 16.99596,1.875 c 13.48791,-10.82662 13.54839,-31.39114 0,-42.27823 5.20162,-19.83871 17.60081,-36.71371 34.17339,-47.84274 L 218.36694,205 c -31.1492,21.95564 -31.1492,68.04435 0,90 l -14.33468,23.95161 c -16.57258,-11.06855 -28.91129,-28.00403 -34.17339,-47.78225 z m 138.32662,79.65725 c -9.25404,5.32258 -20.98791,2.17742 -26.31048,-7.07661 -5.32259,-9.25403 -2.17742,-21.04839 7.0766,-26.37097 9.19356,-5.32258 20.98791,-2.17742 26.31049,7.07661 5.32258,9.25403 2.17743,21.04839 -7.07661,26.37097 z m 0.18144,-42.03629 c -16.14918,-6.22984 -33.93144,3.99194 -36.59273,21.16935 -3.14517,0.84678 -29.57661,8.6492 -58.48791,-5.68548 l 13.60887,-24.375 c 34.47582,16.02823 74.6371,-7.07661 77.96372,-45 l 27.88306,0.42339 c -1.39113,20.86693 -10.46371,39.61693 -24.37501,53.46774 z m -3.56854,-63.68951 c -3.26613,-37.50001 -43.125,-61.20968 -77.96371,-45.00001 l -13.60887,-24.37499 c 28.97178,-14.33468 55.34274,-6.53226 58.4879,-5.68549 2.6613,17.11693 20.44355,27.39919 36.59275,21.16936 13.97177,13.8508 22.98387,32.6008 24.31451,53.52822 z"
     id="path851"
     style="fill:#ffffff;fill-opacity:1;stroke:none;stroke-width:0.604839;stroke-opacity:1" />
</svg>
